# xmcd
#
# Track frame offsets:
# 150
# 20817
# 39486
# 54168
# 68560
# 86809
# 111710
# 126163
# 136037
# 151444
# 175011
#
# Disc length: 2602 seconds
#
#
# Revision: 0
# Processed by: cddbd v1.5.1PL2 Copyright (c) Steve Scherf et al.
# Submitted via: FreeRIP 2.944 
#
DISCID=910a280b
DTITLE=Shooter Jennings - Electric Rodeo
DYEAR=2006
DGENRE=Country/Southern Rock
TTITLE0=Electric Rodeo
TTITLE1=Gone to Carolina
TTITLE2=Some Rowdy Women
TTITLE3=The Song is Slipping Away
TTITLE4=Hair of the Dog
TTITLE5=Little White Lies
TTITLE6=Alligator Chomp (The Ballad of Martin Luther Frog, Jr.)
TTITLE7=Manifesto No. 2
TTITLE8=Aviators
TTITLE9=Bad Magick
TTITLE10=(The) Living Proof
EXTD=
EXTT0=
EXTT1=
EXTT2=
EXTT3=
EXTT4=
EXTT5=
EXTT6=
EXTT7=
EXTT8=
EXTT9=
EXTT10=
PLAYORDER=
